<mxfile host="app.diagrams.net" modified="2023-10-10T12:05:35.823Z" agent="Mozilla/5.0 (Macintosh; Intel Mac OS X 10_15_7) AppleWebKit/537.36 (KHTML, like Gecko) Chrome/117.0.0.0 Safari/537.36 Edg/117.0.2045.55" etag="HAntcwS-i3y1gIUepdHK" version="22.0.4" type="github">
  <diagram name="Page-1" id="ar8txqppgXneRh88Zr35">
    <mxGraphModel dx="984" dy="596" grid="1" gridSize="10" guides="1" tooltips="1" connect="1" arrows="1" fold="1" page="1" pageScale="1" pageWidth="827" pageHeight="1169" math="0" shadow="0">
      <root>
        <mxCell id="0" />
        <mxCell id="1" parent="0" />
        <mxCell id="9KU4_PYil_mS8nZHiDnI-1" value="Uživatel" style="shape=umlActor;verticalLabelPosition=bottom;verticalAlign=top;html=1;outlineConnect=0;" parent="1" vertex="1">
          <mxGeometry x="90" y="290" width="30" height="60" as="geometry" />
        </mxCell>
        <mxCell id="9KU4_PYil_mS8nZHiDnI-6" value="" style="endArrow=classic;html=1;rounded=0;" parent="1" source="u4afQqhCm6mGfK6JVG1b-4" target="u4afQqhCm6mGfK6JVG1b-2" edge="1">
          <mxGeometry width="50" height="50" relative="1" as="geometry">
            <mxPoint x="540" y="440" as="sourcePoint" />
            <mxPoint x="540" y="360" as="targetPoint" />
          </mxGeometry>
        </mxCell>
        <mxCell id="9KU4_PYil_mS8nZHiDnI-9" value="Extends" style="edgeLabel;html=1;align=center;verticalAlign=middle;resizable=0;points=[];" parent="9KU4_PYil_mS8nZHiDnI-6" vertex="1" connectable="0">
          <mxGeometry x="-0.0667" y="-3" relative="1" as="geometry">
            <mxPoint as="offset" />
          </mxGeometry>
        </mxCell>
        <mxCell id="9KU4_PYil_mS8nZHiDnI-7" value="Extends" style="endArrow=classic;html=1;rounded=0;" parent="1" source="u4afQqhCm6mGfK6JVG1b-2" target="u4afQqhCm6mGfK6JVG1b-3" edge="1">
          <mxGeometry width="50" height="50" relative="1" as="geometry">
            <mxPoint x="480" y="330" as="sourcePoint" />
            <mxPoint x="414" y="400" as="targetPoint" />
          </mxGeometry>
        </mxCell>
        <mxCell id="9KU4_PYil_mS8nZHiDnI-8" value="" style="endArrow=classic;html=1;rounded=0;" parent="1" source="u4afQqhCm6mGfK6JVG1b-2" target="u4afQqhCm6mGfK6JVG1b-1" edge="1">
          <mxGeometry width="50" height="50" relative="1" as="geometry">
            <mxPoint x="480" y="330" as="sourcePoint" />
            <mxPoint x="414" y="330" as="targetPoint" />
          </mxGeometry>
        </mxCell>
        <mxCell id="9KU4_PYil_mS8nZHiDnI-10" value="Extends" style="edgeLabel;html=1;align=center;verticalAlign=middle;resizable=0;points=[];" parent="9KU4_PYil_mS8nZHiDnI-8" vertex="1" connectable="0">
          <mxGeometry x="-0.1212" y="-1" relative="1" as="geometry">
            <mxPoint as="offset" />
          </mxGeometry>
        </mxCell>
        <mxCell id="9KU4_PYil_mS8nZHiDnI-13" value="" style="endArrow=classic;html=1;rounded=0;" parent="1" source="u4afQqhCm6mGfK6JVG1b-2" target="u4afQqhCm6mGfK6JVG1b-5" edge="1">
          <mxGeometry width="50" height="50" relative="1" as="geometry">
            <mxPoint x="480" y="330" as="sourcePoint" />
            <mxPoint x="414" y="470" as="targetPoint" />
          </mxGeometry>
        </mxCell>
        <mxCell id="9KU4_PYil_mS8nZHiDnI-14" value="Extends" style="edgeLabel;html=1;align=center;verticalAlign=middle;resizable=0;points=[];" parent="9KU4_PYil_mS8nZHiDnI-13" vertex="1" connectable="0">
          <mxGeometry x="-0.022" y="4" relative="1" as="geometry">
            <mxPoint as="offset" />
          </mxGeometry>
        </mxCell>
        <mxCell id="9KU4_PYil_mS8nZHiDnI-15" value="" style="endArrow=none;html=1;rounded=0;" parent="1" source="u4afQqhCm6mGfK6JVG1b-5" target="9KU4_PYil_mS8nZHiDnI-1" edge="1">
          <mxGeometry width="50" height="50" relative="1" as="geometry">
            <mxPoint x="294" y="470" as="sourcePoint" />
            <mxPoint x="290" y="470" as="targetPoint" />
          </mxGeometry>
        </mxCell>
        <mxCell id="9KU4_PYil_mS8nZHiDnI-16" value="" style="endArrow=none;html=1;rounded=0;" parent="1" source="u4afQqhCm6mGfK6JVG1b-3" target="9KU4_PYil_mS8nZHiDnI-1" edge="1">
          <mxGeometry width="50" height="50" relative="1" as="geometry">
            <mxPoint x="294" y="400" as="sourcePoint" />
            <mxPoint x="430" y="320" as="targetPoint" />
          </mxGeometry>
        </mxCell>
        <mxCell id="9KU4_PYil_mS8nZHiDnI-17" value="" style="endArrow=none;html=1;rounded=0;" parent="1" source="u4afQqhCm6mGfK6JVG1b-1" target="9KU4_PYil_mS8nZHiDnI-1" edge="1">
          <mxGeometry width="50" height="50" relative="1" as="geometry">
            <mxPoint x="294" y="330" as="sourcePoint" />
            <mxPoint x="430" y="320" as="targetPoint" />
          </mxGeometry>
        </mxCell>
        <mxCell id="9KU4_PYil_mS8nZHiDnI-18" value="&lt;b&gt;Operace s mapou&lt;/b&gt;" style="text;html=1;strokeColor=none;fillColor=none;align=center;verticalAlign=middle;whiteSpace=wrap;rounded=0;" parent="1" vertex="1">
          <mxGeometry x="340" y="40" width="116" height="30" as="geometry" />
        </mxCell>
        <mxCell id="u4afQqhCm6mGfK6JVG1b-1" value="Vyhledání nejbližších míst" style="ellipse;whiteSpace=wrap;html=1;fillColor=#d5e8d4;strokeColor=#82b366;" vertex="1" parent="1">
          <mxGeometry x="280" y="90" width="120" height="80" as="geometry" />
        </mxCell>
        <mxCell id="u4afQqhCm6mGfK6JVG1b-2" value="Zobrazení detailních informací o daném místě" style="ellipse;whiteSpace=wrap;html=1;fillColor=#d5e8d4;strokeColor=#82b366;" vertex="1" parent="1">
          <mxGeometry x="530" y="270" width="120" height="80" as="geometry" />
        </mxCell>
        <mxCell id="u4afQqhCm6mGfK6JVG1b-3" value="Prohlížení míst v mapě" style="ellipse;whiteSpace=wrap;html=1;fillColor=#d5e8d4;strokeColor=#82b366;" vertex="1" parent="1">
          <mxGeometry x="280" y="180" width="120" height="80" as="geometry" />
        </mxCell>
        <mxCell id="u4afQqhCm6mGfK6JVG1b-4" value="Navigace ke zvolenému místu pomocí externí aplikace" style="ellipse;whiteSpace=wrap;html=1;fillColor=#d5e8d4;strokeColor=#82b366;" vertex="1" parent="1">
          <mxGeometry x="530" y="450" width="120" height="80" as="geometry" />
        </mxCell>
        <mxCell id="u4afQqhCm6mGfK6JVG1b-5" value="Vyhledání specifického místa" style="ellipse;whiteSpace=wrap;html=1;" vertex="1" parent="1">
          <mxGeometry x="280" y="270" width="120" height="80" as="geometry" />
        </mxCell>
        <mxCell id="u4afQqhCm6mGfK6JVG1b-7" value="Zobrazení hodnocení daného místa" style="ellipse;whiteSpace=wrap;html=1;" vertex="1" parent="1">
          <mxGeometry x="280" y="360" width="120" height="80" as="geometry" />
        </mxCell>
        <mxCell id="u4afQqhCm6mGfK6JVG1b-8" value="" style="endArrow=classic;html=1;rounded=0;" edge="1" parent="1" source="u4afQqhCm6mGfK6JVG1b-2" target="u4afQqhCm6mGfK6JVG1b-7">
          <mxGeometry width="50" height="50" relative="1" as="geometry">
            <mxPoint x="390" y="330" as="sourcePoint" />
            <mxPoint x="440" y="280" as="targetPoint" />
          </mxGeometry>
        </mxCell>
        <mxCell id="u4afQqhCm6mGfK6JVG1b-12" value="Extends" style="edgeLabel;html=1;align=center;verticalAlign=middle;resizable=0;points=[];" vertex="1" connectable="0" parent="u4afQqhCm6mGfK6JVG1b-8">
          <mxGeometry x="0.0131" y="-5" relative="1" as="geometry">
            <mxPoint as="offset" />
          </mxGeometry>
        </mxCell>
        <mxCell id="u4afQqhCm6mGfK6JVG1b-9" value="" style="endArrow=none;html=1;rounded=0;" edge="1" parent="1" source="9KU4_PYil_mS8nZHiDnI-1" target="u4afQqhCm6mGfK6JVG1b-7">
          <mxGeometry width="50" height="50" relative="1" as="geometry">
            <mxPoint x="390" y="330" as="sourcePoint" />
            <mxPoint x="440" y="280" as="targetPoint" />
          </mxGeometry>
        </mxCell>
        <mxCell id="u4afQqhCm6mGfK6JVG1b-10" value="Přidání hodnocení daného místa" style="ellipse;whiteSpace=wrap;html=1;" vertex="1" parent="1">
          <mxGeometry x="280" y="450" width="120" height="80" as="geometry" />
        </mxCell>
        <mxCell id="u4afQqhCm6mGfK6JVG1b-11" value="" style="endArrow=classic;html=1;rounded=0;" edge="1" parent="1" source="u4afQqhCm6mGfK6JVG1b-2" target="u4afQqhCm6mGfK6JVG1b-10">
          <mxGeometry width="50" height="50" relative="1" as="geometry">
            <mxPoint x="390" y="330" as="sourcePoint" />
            <mxPoint x="440" y="280" as="targetPoint" />
          </mxGeometry>
        </mxCell>
        <mxCell id="u4afQqhCm6mGfK6JVG1b-13" value="Extends" style="edgeLabel;html=1;align=center;verticalAlign=middle;resizable=0;points=[];" vertex="1" connectable="0" parent="u4afQqhCm6mGfK6JVG1b-11">
          <mxGeometry x="0.0731" relative="1" as="geometry">
            <mxPoint as="offset" />
          </mxGeometry>
        </mxCell>
        <mxCell id="u4afQqhCm6mGfK6JVG1b-14" value="" style="endArrow=none;html=1;rounded=0;" edge="1" parent="1" source="9KU4_PYil_mS8nZHiDnI-1" target="u4afQqhCm6mGfK6JVG1b-10">
          <mxGeometry width="50" height="50" relative="1" as="geometry">
            <mxPoint x="390" y="330" as="sourcePoint" />
            <mxPoint x="440" y="280" as="targetPoint" />
          </mxGeometry>
        </mxCell>
        <mxCell id="u4afQqhCm6mGfK6JVG1b-15" value="&lt;h1&gt;Legenda&lt;/h1&gt;&lt;div&gt;Zeleně jsou zobrazeny Use Cases, které jsou již ve stávající aplikaci hotovy.&lt;/div&gt;" style="text;html=1;strokeColor=none;fillColor=none;spacing=5;spacingTop=-20;whiteSpace=wrap;overflow=hidden;rounded=0;" vertex="1" parent="1">
          <mxGeometry x="637" y="530" width="190" height="120" as="geometry" />
        </mxCell>
      </root>
    </mxGraphModel>
  </diagram>
</mxfile>
